<svg xmlns="http://www.w3.org/2000/svg" width="512" height="136" preserveAspectRatio="xMidYMid"><path fill="#5E5E5E" d="M487.53 110.731c-5.003 0-9.527-1.165-13.571-3.496-3.975-2.33-7.094-5.552-9.356-9.664-2.262-4.181-3.392-8.842-3.392-13.983 0-4.934 1.062-9.458 3.187-13.571 2.124-4.05 5.053-7.264 8.786-9.642l.364-.228c3.906-2.467 8.362-3.7 13.365-3.7 5.141 0 9.596 1.13 13.366 3.392 3.838 2.262 6.752 5.415 8.74 9.459 1.987 3.975 2.981 8.567 2.981 13.777 0 .617-.035 1.233-.103 1.85l-.093.887c-.007.073-.01.12-.01.141H472.52c.343 4.661 2.022 8.26 5.038 10.795 3.016 2.537 6.442 3.804 10.28 3.804 5.896 0 10.419-2.741 13.572-8.225l9.665 4.627c-2.263 4.181-5.415 7.54-9.46 10.076-3.975 2.467-8.67 3.701-14.085 3.701Zm12.955-33.414c-.137-1.645-.686-3.324-1.645-5.038-.96-1.714-2.468-3.153-4.524-4.318-1.988-1.234-4.49-1.85-7.505-1.85-3.359 0-6.272 1.028-8.74 3.084-2.398 2.056-4.043 4.764-4.934 8.122h27.348Zm-64.096 33.414c-5.826 0-10.658-1.337-14.496-4.01-3.77-2.741-6.443-6.169-8.02-10.281l10.076-4.318c1.165 2.81 2.845 4.935 5.038 6.374a13.515 13.515 0 0 0 7.402 2.16c2.81 0 5.107-.514 6.889-1.543 1.782-1.096 2.673-2.502 2.673-4.215 0-1.577-.66-2.87-1.983-3.88l-.177-.13c-1.439-1.096-3.804-2.056-7.093-2.879l-6.992-1.644c-3.838-.892-7.162-2.537-9.972-4.935-2.742-2.468-4.113-5.655-4.113-9.562 0-4.629 1.871-8.305 5.614-11.03l.247-.177c3.906-2.81 8.704-4.215 14.393-4.215 4.73 0 8.91.994 12.544 2.982 3.7 1.987 6.374 4.866 8.018 8.636l-9.972 4.215c-.96-2.124-2.434-3.701-4.421-4.73-1.988-1.027-4.147-1.541-6.477-1.541-2.15 0-4.05.464-5.704 1.391l-.26.15c-1.713.96-2.57 2.263-2.57 3.908 0 1.44.583 2.604 1.748 3.496 1.18.852 2.987 1.579 5.422 2.18l7.944 1.932c5.14 1.302 8.979 3.29 11.515 5.963 2.535 2.605 3.804 5.758 3.804 9.459 0 2.908-.86 5.56-2.582 7.96l-.194.265c-1.782 2.467-4.284 4.42-7.505 5.86-3.154 1.44-6.751 2.16-10.796 2.16Zm-54.104 0c-3.633 0-6.923-.72-9.87-2.159-2.878-1.508-5.175-3.564-6.889-6.169-1.644-2.673-2.467-5.689-2.467-9.047 0-5.347 1.988-9.562 5.963-12.646 4.044-3.085 9.15-4.627 15.32-4.627 5.414 0 10.04.926 13.88 2.776V76.7c0-2.99-1.161-5.466-3.482-7.425l-.22-.183c-2.4-2.056-5.312-3.084-8.74-3.084-5.208 0-9.39 2.124-12.542 6.374l-8.636-5.963c2.398-3.222 5.38-5.689 8.944-7.403 3.633-1.713 7.711-2.57 12.235-2.57 7.327 0 13.006 1.813 17.037 5.44l.235.215c4.112 3.701 6.169 8.944 6.169 15.73v31.255h-11v-6.271h-.618c-1.645 2.33-3.735 4.25-6.272 5.757-2.535 1.44-5.551 2.16-9.047 2.16Zm1.85-9.356c2.537 0 4.867-.616 6.992-1.85 2.193-1.303 3.907-2.982 5.14-5.038 1.303-2.125 1.954-4.387 1.954-6.786-3.632-1.988-7.506-2.982-11.618-2.982-3.77 0-6.717.823-8.841 2.468-2.125 1.645-3.187 3.736-3.187 6.271 0 2.331.924 4.25 2.775 5.758 1.92 1.44 4.181 2.159 6.786 2.159Zm-49.3 9.356c-3.702 0-7.026-.788-9.973-2.365-2.879-1.576-5.038-3.564-6.477-5.963h-.617v6.683h-10.693V35.472h11.31v22.105l-.617 7.094h.617c1.439-2.33 3.598-4.284 6.477-5.86 2.947-1.577 6.271-2.365 9.973-2.365 4.386 0 8.43 1.165 12.131 3.496 3.649 2.255 6.559 5.377 8.73 9.365l.215.402c2.262 4.112 3.393 8.738 3.393 13.88 0 4.98-1.062 9.477-3.184 13.492l-.209.387c-2.193 4.112-5.175 7.368-8.945 9.767-3.7 2.33-7.745 3.496-12.131 3.496Zm-1.954-10.384c2.673 0 5.14-.685 7.402-2.056 2.33-1.371 4.181-3.325 5.552-5.86 1.44-2.605 2.16-5.552 2.16-8.843 0-3.29-.72-6.203-2.16-8.738-1.37-2.605-3.221-4.593-5.552-5.964-2.261-1.37-4.729-2.056-7.402-2.056s-5.175.685-7.505 2.056c-2.262 1.371-4.113 3.324-5.552 5.86-1.37 2.537-2.056 5.484-2.056 8.842 0 3.36.685 6.306 2.056 8.842 1.44 2.536 3.29 4.49 5.552 5.86 2.33 1.372 4.832 2.057 7.505 2.057Zm-57.628-43.9c5.14 0 9.596 1.13 13.365 3.392 3.839 2.262 6.752 5.415 8.74 9.459 1.987 3.975 2.981 8.567 2.981 13.777 0 .617-.034 1.233-.102 1.85l-.082.758a4.267 4.267 0 0 0-.021.27h-39.275c.343 4.661 2.022 8.26 5.038 10.795 3.016 2.537 6.443 3.804 10.281 3.804 5.895 0 10.419-2.741 13.571-8.225l9.665 4.627c-2.262 4.181-5.415 7.54-9.459 10.076-3.975 2.467-8.67 3.701-14.085 3.701-5.004 0-9.527-1.165-13.571-3.496-3.976-2.33-7.095-5.552-9.356-9.664-2.262-4.181-3.393-8.842-3.393-13.983 0-4.934 1.063-9.458 3.187-13.571 2.193-4.18 5.244-7.47 9.15-9.87 3.907-2.467 8.363-3.7 13.366-3.7Zm-30.976.102c2.467 0 4.49.343 6.066 1.028v11.824c-2.331-1.166-4.935-1.748-7.814-1.748-3.701 0-6.82 1.44-9.356 4.318-2.467 2.81-3.701 6.271-3.701 10.384v26.73h-11.31V58.092h10.693V65.7h.617c1.058-2.511 2.944-4.609 5.658-6.292l.305-.185c2.879-1.782 5.826-2.673 8.842-2.673Zm30.873 9.561c-3.359 0-6.271 1.029-8.739 3.085-2.399 2.056-4.044 4.764-4.935 8.122h27.348c-.137-1.645-.685-3.324-1.645-5.038-.96-1.714-2.467-3.153-4.523-4.318-1.988-1.234-4.49-1.85-7.506-1.85Zm-73.128-16.655c-2.124 0-3.94-.72-5.449-2.16-1.44-1.507-2.159-3.324-2.159-5.448 0-2.125.72-3.907 2.159-5.347 1.508-1.507 3.325-2.261 5.45-2.261 2.124 0 3.906.754 5.346 2.261 1.508 1.44 2.262 3.222 2.262 5.347 0 2.124-.754 3.94-2.262 5.449-1.44 1.44-3.222 2.159-5.347 2.159Zm-5.654 8.636h11.309v50.995h-11.31V58.09Zm-51.514-22.619h44.723v11.001h-33.209v21.18h29.919V78.55h-29.919v30.535h-11.514V35.472Z"/><path fill="#FF9100" d="M33.7 131.256a53.75 53.75 0 0 0 18.23 3.85 53.58 53.58 0 0 0 24.418-4.92 76.049 76.049 0 0 1-23.804-14.947A40.757 40.757 0 0 1 33.7 131.256Z"/><path fill="#FFC400" d="M52.542 115.242C36.862 100.74 27.35 79.75 28.154 56.729c.026-.748.066-1.495.112-2.242a40.615 40.615 0 0 0-21.206.222A53.55 53.55 0 0 0 .033 79.465c-.812 23.256 13.262 43.576 33.665 51.793a40.722 40.722 0 0 0 18.844-16.016Z"/><path fill="#FF9100" d="M52.543 115.24a40.359 40.359 0 0 0 6.113-20.042c.677-19.384-12.354-36.058-30.39-40.711a83.678 83.678 0 0 0-.111 2.241c-.804 23.022 8.708 44.011 24.388 58.513Z"/><path fill="#DD2C00" d="M56.64 0C46.366 8.229 38.255 19.08 33.348 31.58a75.852 75.852 0 0 0-5.09 22.911c18.035 4.653 31.066 21.328 30.389 40.712a40.447 40.447 0 0 1-6.113 20.043 75.934 75.934 0 0 0 23.804 14.945c17.838-8.245 30.493-25.987 31.226-46.973.475-13.597-4.75-25.715-12.131-35.944C87.638 36.456 56.639 0 56.639 0Z"/></svg>